<svg width="167" height="58" viewBox="0 0 167 58" fill="none" xmlns="http://www.w3.org/2000/svg">
<path d="M71.1155 52.0642H67.8652L62.4289 43.8337V52.0642H59.1785V38.7206H62.4289L67.8652 46.9891V38.7206H71.1155V52.0642Z" fill="#003B73"/>
<path d="M74.1559 46.742C74.1559 45.6522 74.3587 44.6954 74.7642 43.8718C75.1823 43.0481 75.7462 42.4145 76.4559 41.971C77.1655 41.5274 77.9575 41.3057 78.8319 41.3057C79.5795 41.3057 80.2321 41.4577 80.7897 41.7619C81.3599 42.066 81.7971 42.4652 82.1012 42.9594V41.4577H85.3516V52.0642H82.1012V50.5626C81.7844 51.0568 81.3409 51.456 80.7707 51.7601C80.2131 52.0642 79.5605 52.2163 78.8129 52.2163C77.9512 52.2163 77.1655 51.9945 76.4559 51.551C75.7462 51.0948 75.1823 50.4549 74.7642 49.6312C74.3587 48.7948 74.1559 47.8318 74.1559 46.742ZM82.1012 46.761C82.1012 45.95 81.8732 45.31 81.417 44.8412C80.9734 44.3723 80.4285 44.1379 79.7823 44.1379C79.136 44.1379 78.5848 44.3723 78.1286 44.8412C77.6851 45.2974 77.4633 45.931 77.4633 46.742C77.4633 47.553 77.6851 48.1992 78.1286 48.6808C78.5848 49.1497 79.136 49.3841 79.7823 49.3841C80.4285 49.3841 80.9734 49.1497 81.417 48.6808C81.8732 48.2119 82.1012 47.572 82.1012 46.761Z" fill="#003B73"/>
<path d="M93.8047 49.0229L96.1047 41.4577H99.5641L95.8005 52.0642H91.7898L88.0263 41.4577H91.5047L93.8047 49.0229Z" fill="#003B73"/>
<path d="M103.897 40.3553C103.327 40.3553 102.858 40.1905 102.491 39.8611C102.136 39.5189 101.959 39.1008 101.959 38.6065C101.959 38.0997 102.136 37.6815 102.491 37.352C102.858 37.0099 103.327 36.8388 103.897 36.8388C104.455 36.8388 104.911 37.0099 105.266 37.352C105.634 37.6815 105.817 38.0997 105.817 38.6065C105.817 39.1008 105.634 39.5189 105.266 39.8611C104.911 40.1905 104.455 40.3553 103.897 40.3553ZM105.513 41.4577V52.0642H102.263V41.4577H105.513Z" fill="#003B73"/>
<path d="M113.229 41.3057C113.977 41.3057 114.629 41.4577 115.187 41.7619C115.757 42.066 116.194 42.4652 116.498 42.9594V41.4577H119.749V52.0452C119.749 53.0209 119.552 53.9016 119.159 54.6873C118.779 55.4856 118.19 56.1192 117.392 56.5881C116.606 57.057 115.624 57.2914 114.445 57.2914C112.874 57.2914 111.601 56.9176 110.625 56.1699C109.649 55.435 109.092 54.4339 108.952 53.1667H112.164C112.266 53.5722 112.507 53.889 112.887 54.1171C113.267 54.3578 113.736 54.4782 114.293 54.4782C114.965 54.4782 115.497 54.2818 115.89 53.889C116.296 53.5088 116.498 52.8942 116.498 52.0452V50.5436C116.182 51.0378 115.744 51.4433 115.187 51.7601C114.629 52.0642 113.977 52.2163 113.229 52.2163C112.355 52.2163 111.563 51.9945 110.853 51.551C110.143 51.0948 109.579 50.4549 109.161 49.6312C108.756 48.7948 108.553 47.8318 108.553 46.742C108.553 45.6522 108.756 44.6954 109.161 43.8718C109.579 43.0481 110.143 42.4145 110.853 41.971C111.563 41.5274 112.355 41.3057 113.229 41.3057ZM116.498 46.761C116.498 45.95 116.27 45.31 115.814 44.8412C115.37 44.3723 114.826 44.1379 114.179 44.1379C113.533 44.1379 112.982 44.3723 112.526 44.8412C112.082 45.2974 111.86 45.931 111.86 46.742C111.86 47.553 112.082 48.1992 112.526 48.6808C112.982 49.1497 113.533 49.3841 114.179 49.3841C114.826 49.3841 115.37 49.1497 115.814 48.6808C116.27 48.2119 116.498 47.572 116.498 46.761Z" fill="#003B73"/>
<path d="M122.784 46.742C122.784 45.6522 122.987 44.6954 123.393 43.8718C123.811 43.0481 124.375 42.4145 125.084 41.971C125.794 41.5274 126.586 41.3057 127.46 41.3057C128.208 41.3057 128.861 41.4577 129.418 41.7619C129.988 42.066 130.426 42.4652 130.73 42.9594V41.4577H133.98V52.0642H130.73V50.5626C130.413 51.0568 129.969 51.456 129.399 51.7601C128.842 52.0642 128.189 52.2163 127.441 52.2163C126.58 52.2163 125.794 51.9945 125.084 51.551C124.375 51.0948 123.811 50.4549 123.393 49.6312C122.987 48.7948 122.784 47.8318 122.784 46.742ZM130.73 46.761C130.73 45.95 130.502 45.31 130.046 44.8412C129.602 44.3723 129.057 44.1379 128.411 44.1379C127.765 44.1379 127.213 44.3723 126.757 44.8412C126.314 45.2974 126.092 45.931 126.092 46.742C126.092 47.553 126.314 48.1992 126.757 48.6808C127.213 49.1497 127.765 49.3841 128.411 49.3841C129.057 49.3841 129.602 49.1497 130.046 48.6808C130.502 48.2119 130.73 47.572 130.73 46.761Z" fill="#003B73"/>
<path d="M143.574 49.308V52.0642H141.92C140.742 52.0642 139.823 51.7791 139.164 51.2089C138.505 50.6259 138.175 49.6819 138.175 48.3767V44.1569H136.883V41.4577H138.175V38.8727H141.426V41.4577H143.555V44.1569H141.426V48.4147C141.426 48.7315 141.502 48.9596 141.654 49.099C141.806 49.2384 142.059 49.308 142.414 49.308H143.574Z" fill="#003B73"/>
<path d="M151.543 52.2163C150.504 52.2163 149.566 51.9945 148.73 51.551C147.906 51.1075 147.253 50.4739 146.772 49.6502C146.303 48.8265 146.069 47.8634 146.069 46.761C146.069 45.6712 146.309 44.7145 146.791 43.8908C147.272 43.0544 147.931 42.4145 148.768 41.971C149.604 41.5274 150.542 41.3057 151.581 41.3057C152.62 41.3057 153.558 41.5274 154.394 41.971C155.23 42.4145 155.889 43.0544 156.371 43.8908C156.852 44.7145 157.093 45.6712 157.093 46.761C157.093 47.8508 156.846 48.8138 156.352 49.6502C155.87 50.4739 155.205 51.1075 154.356 51.551C153.52 51.9945 152.582 52.2163 151.543 52.2163ZM151.543 49.4031C152.164 49.4031 152.69 49.175 153.12 48.7188C153.564 48.2626 153.786 47.61 153.786 46.761C153.786 45.912 153.57 45.2593 153.139 44.8032C152.721 44.347 152.202 44.1189 151.581 44.1189C150.947 44.1189 150.421 44.347 150.003 44.8032C149.585 45.2467 149.376 45.8993 149.376 46.761C149.376 47.61 149.579 48.2626 149.984 48.7188C150.402 49.175 150.922 49.4031 151.543 49.4031Z" fill="#003B73"/>
<path d="M163.398 43.2255C163.779 42.6426 164.254 42.1864 164.824 41.8569C165.394 41.5148 166.028 41.3437 166.725 41.3437V44.7841H165.831C165.02 44.7841 164.412 44.9616 164.007 45.3164C163.601 45.6585 163.398 46.2668 163.398 47.1411V52.0642H160.148V41.4577H163.398V43.2255Z" fill="#003B73"/>
<path d="M36.3662 15.5642H14.3662C12.8662 17.0642 8.96622 21.2642 5.36621 26.0642C-5.43379 43.6642 2.53288 53.0642 7.86621 55.5642H41.8662C44.5329 55.0642 50.0662 51.5642 50.8662 41.5642C51.6662 31.5642 41.5329 20.0642 36.3662 15.5642Z" fill="#003B73"/>
<path d="M25.8662 0.0642037C23.4662 -0.335796 21.5329 1.23087 20.8662 2.0642H12.8662C12.5329 3.56421 12.4662 7.46421 14.8662 11.0642H35.8662C38.2662 7.86421 37.8662 3.73087 37.3662 2.0642H30.3662C29.8662 1.5642 28.2662 0.464204 25.8662 0.0642037Z" fill="#003B73"/>
<path d="M17.3662 26.0642V23.5642H33.3662V26.0642H27.3662C27.6868 26.5985 28.213 27.5988 28.5493 28.5642H33.3662V32.0642H28.888C28.3552 34.851 25.5058 36.5177 23.8662 37.0642L29.8662 45.0642H24.8662L17.3662 37.0642V34.0642C17.8662 34.2309 19.4662 34.4642 21.8662 34.0642C23.277 33.8291 24.2455 33.0411 24.7717 32.0642H17.3662V28.5642H24.8662C24.0662 26.9642 23.1995 26.2309 22.8662 26.0642H17.3662Z" fill="#FFAE00"/>
<g filter="url(#filter0_d_175_8)">
<path d="M69.937 33.5337H66.6867L61.2504 25.3032V33.5337H58V20.1901H61.2504L66.6867 28.4586V20.1901H69.937V33.5337Z" fill="#FFAE00"/>
<path d="M76.8741 22.7942V25.4933H81.2269V28.0024H76.8741V30.9296H81.7971V33.5337H73.6237V20.1901H81.7971V22.7942H76.8741Z" fill="#FFAE00"/>
<path d="M95.4072 24.4859C95.4072 25.2589 95.2297 25.9685 94.8749 26.6148C94.5201 27.2484 93.9752 27.7616 93.2402 28.1544C92.5053 28.5473 91.5929 28.7437 90.5031 28.7437H88.4882V33.5337H85.2379V20.1901H90.5031C91.5675 20.1901 92.4672 20.3738 93.2022 20.7413C93.9372 21.1088 94.4884 21.6157 94.8559 22.262C95.2234 22.9082 95.4072 23.6495 95.4072 24.4859ZM90.256 26.1586C90.8769 26.1586 91.3394 26.0129 91.6436 25.7214C91.9477 25.43 92.0998 25.0181 92.0998 24.4859C92.0998 23.9537 91.9477 23.5418 91.6436 23.2504C91.3394 22.9589 90.8769 22.8132 90.256 22.8132H88.4882V26.1586H90.256Z" fill="#FFAE00"/>
<path d="M103.258 33.6668C102.282 33.6668 101.408 33.5084 100.635 33.1916C99.8618 32.8748 99.2409 32.4059 98.772 31.785C98.3158 31.164 98.0751 30.4164 98.0497 29.542H101.509C101.56 30.0362 101.731 30.4164 102.022 30.6825C102.314 30.9359 102.694 31.0627 103.163 31.0627C103.644 31.0627 104.025 30.9549 104.303 30.7395C104.582 30.5114 104.722 30.201 104.722 29.8081C104.722 29.4787 104.607 29.2062 104.379 28.9908C104.164 28.7754 103.891 28.598 103.562 28.4586C103.245 28.3192 102.789 28.1608 102.193 27.9834C101.332 27.7172 100.628 27.4511 100.084 27.185C99.5387 26.9189 99.0698 26.5261 98.677 26.0065C98.2841 25.487 98.0877 24.809 98.0877 23.9727C98.0877 22.7308 98.5376 21.7614 99.4373 21.0644C100.337 20.3548 101.509 20 102.954 20C104.424 20 105.609 20.3548 106.508 21.0644C107.408 21.7614 107.89 22.7372 107.953 23.9917H104.436C104.411 23.5608 104.253 23.225 103.961 22.9843C103.67 22.7308 103.296 22.6041 102.84 22.6041C102.447 22.6041 102.13 22.7118 101.889 22.9272C101.649 23.13 101.528 23.4278 101.528 23.8206C101.528 24.2515 101.731 24.5873 102.136 24.828C102.542 25.0688 103.176 25.3286 104.037 25.6074C104.899 25.8988 105.596 26.1776 106.128 26.4437C106.673 26.7098 107.142 27.0963 107.535 27.6032C107.928 28.1101 108.124 28.7627 108.124 29.561C108.124 30.3213 107.928 31.012 107.535 31.6329C107.155 32.2538 106.597 32.748 105.862 33.1155C105.127 33.483 104.259 33.6668 103.258 33.6668Z" fill="#FFAE00"/>
<path d="M114.705 22.7942V25.4933H119.058V28.0024H114.705V30.9296H119.628V33.5337H111.455V20.1901H119.628V22.7942H114.705Z" fill="#FFAE00"/>
<path d="M69.937 33.5337H66.6867L61.2504 25.3032V33.5337H58V20.1901H61.2504L66.6867 28.4586V20.1901H69.937V33.5337Z" stroke="black" stroke-width="0.1"/>
<path d="M76.8741 22.7942V25.4933H81.2269V28.0024H76.8741V30.9296H81.7971V33.5337H73.6237V20.1901H81.7971V22.7942H76.8741Z" stroke="black" stroke-width="0.1"/>
<path d="M95.4072 24.4859C95.4072 25.2589 95.2297 25.9685 94.8749 26.6148C94.5201 27.2484 93.9752 27.7616 93.2402 28.1544C92.5053 28.5473 91.5929 28.7437 90.5031 28.7437H88.4882V33.5337H85.2379V20.1901H90.5031C91.5675 20.1901 92.4672 20.3738 93.2022 20.7413C93.9372 21.1088 94.4884 21.6157 94.8559 22.262C95.2234 22.9082 95.4072 23.6495 95.4072 24.4859ZM90.256 26.1586C90.8769 26.1586 91.3394 26.0129 91.6436 25.7214C91.9477 25.43 92.0998 25.0181 92.0998 24.4859C92.0998 23.9537 91.9477 23.5418 91.6436 23.2504C91.3394 22.9589 90.8769 22.8132 90.256 22.8132H88.4882V26.1586H90.256Z" stroke="black" stroke-width="0.1"/>
<path d="M103.258 33.6668C102.282 33.6668 101.408 33.5084 100.635 33.1916C99.8618 32.8748 99.2409 32.4059 98.772 31.785C98.3158 31.164 98.0751 30.4164 98.0497 29.542H101.509C101.56 30.0362 101.731 30.4164 102.022 30.6825C102.314 30.9359 102.694 31.0627 103.163 31.0627C103.644 31.0627 104.025 30.9549 104.303 30.7395C104.582 30.5114 104.722 30.201 104.722 29.8081C104.722 29.4787 104.607 29.2062 104.379 28.9908C104.164 28.7754 103.891 28.598 103.562 28.4586C103.245 28.3192 102.789 28.1608 102.193 27.9834C101.332 27.7172 100.628 27.4511 100.084 27.185C99.5387 26.9189 99.0698 26.5261 98.677 26.0065C98.2841 25.487 98.0877 24.809 98.0877 23.9727C98.0877 22.7308 98.5376 21.7614 99.4373 21.0644C100.337 20.3548 101.509 20 102.954 20C104.424 20 105.609 20.3548 106.508 21.0644C107.408 21.7614 107.89 22.7372 107.953 23.9917H104.436C104.411 23.5608 104.253 23.225 103.961 22.9843C103.67 22.7308 103.296 22.6041 102.84 22.6041C102.447 22.6041 102.13 22.7118 101.889 22.9272C101.649 23.13 101.528 23.4278 101.528 23.8206C101.528 24.2515 101.731 24.5873 102.136 24.828C102.542 25.0688 103.176 25.3286 104.037 25.6074C104.899 25.8988 105.596 26.1776 106.128 26.4437C106.673 26.7098 107.142 27.0963 107.535 27.6032C107.928 28.1101 108.124 28.7627 108.124 29.561C108.124 30.3213 107.928 31.012 107.535 31.6329C107.155 32.2538 106.597 32.748 105.862 33.1155C105.127 33.483 104.259 33.6668 103.258 33.6668Z" stroke="black" stroke-width="0.1"/>
<path d="M114.705 22.7942V25.4933H119.058V28.0024H114.705V30.9296H119.628V33.5337H111.455V20.1901H119.628V22.7942H114.705Z" stroke="black" stroke-width="0.1"/>
</g>
<defs>
<filter id="filter0_d_175_8" x="51.95" y="12.95" width="75.7283" height="27.7668" filterUnits="userSpaceOnUse" color-interpolation-filters="sRGB">
<feFlood flood-opacity="0" result="BackgroundImageFix"/>
<feColorMatrix in="SourceAlpha" type="matrix" values="0 0 0 0 0 0 0 0 0 0 0 0 0 0 0 0 0 0 127 0" result="hardAlpha"/>
<feOffset dx="1"/>
<feGaussianBlur stdDeviation="3.5"/>
<feComposite in2="hardAlpha" operator="out"/>
<feColorMatrix type="matrix" values="0 0 0 0 1 0 0 0 0 0.4 0 0 0 0 0 0 0 0 0.25 0"/>
<feBlend mode="normal" in2="BackgroundImageFix" result="effect1_dropShadow_175_8"/>
<feBlend mode="normal" in="SourceGraphic" in2="effect1_dropShadow_175_8" result="shape"/>
</filter>
</defs>
</svg>
